<svg xmlns="http://www.w3.org/2000/svg" xmlns:xlink="http://www.w3.org/1999/xlink" width="2000" zoomAndPan="magnify" viewBox="0 0 1500 1499.999933" height="2000" preserveAspectRatio="xMidYMid meet" version="1.0"><path fill="#00f2ff" d="M 750.832031 150 C 758.199219 150 765.558594 150.179688 772.914062 150.542969 C 780.269531 150.902344 787.613281 151.445312 794.941406 152.167969 C 802.269531 152.890625 809.578125 153.789062 816.863281 154.871094 C 824.148438 155.949219 831.402344 157.210938 838.625 158.648438 C 845.847656 160.082031 853.03125 161.695312 860.175781 163.484375 C 867.316406 165.273438 874.414062 167.238281 881.460938 169.375 C 888.507812 171.515625 895.5 173.824219 902.433594 176.304688 C 909.367188 178.785156 916.238281 181.4375 923.039062 184.253906 C 929.84375 187.074219 936.574219 190.054688 943.234375 193.203125 C 949.890625 196.355469 956.464844 199.664062 962.960938 203.136719 C 969.457031 206.605469 975.863281 210.234375 982.179688 214.023438 C 988.496094 217.808594 994.714844 221.746094 1000.839844 225.839844 C 1006.964844 229.929688 1012.984375 234.167969 1018.898438 238.554688 C 1024.8125 242.945312 1030.617188 247.472656 1036.308594 252.144531 C 1042.003906 256.816406 1047.578125 261.625 1053.035156 266.570312 C 1058.492188 271.519531 1063.824219 276.59375 1069.03125 281.800781 C 1074.238281 287.007812 1079.316406 292.339844 1084.261719 297.796875 C 1089.207031 303.253906 1094.015625 308.828125 1098.6875 314.523438 C 1103.359375 320.214844 1107.890625 326.019531 1112.277344 331.933594 C 1116.664062 337.851562 1120.902344 343.871094 1124.996094 349.992188 C 1129.085938 356.117188 1133.023438 362.335938 1136.8125 368.652344 C 1140.597656 374.96875 1144.226562 381.375 1147.699219 387.871094 C 1151.167969 394.367188 1154.480469 400.941406 1157.628906 407.601562 C 1160.777344 414.257812 1163.761719 420.988281 1166.578125 427.792969 C 1169.398438 434.597656 1172.046875 441.464844 1174.527344 448.398438 C 1177.007812 455.332031 1179.320312 462.324219 1181.457031 469.371094 C 1183.59375 476.417969 1185.558594 483.515625 1187.347656 490.660156 C 1189.136719 497.800781 1190.75 504.984375 1192.1875 512.210938 C 1193.625 519.433594 1194.882812 526.6875 1195.960938 533.972656 C 1197.042969 541.257812 1197.945312 548.5625 1198.667969 555.890625 C 1199.386719 563.222656 1199.929688 570.5625 1200.292969 577.917969 C 1200.652344 585.273438 1200.832031 592.636719 1200.832031 600 C 1200.832031 607.363281 1200.652344 614.726562 1200.292969 622.082031 C 1199.929688 629.4375 1199.386719 636.777344 1198.667969 644.109375 C 1197.945312 651.4375 1197.042969 658.742188 1195.960938 666.027344 C 1194.882812 673.3125 1193.625 680.566406 1192.1875 687.789062 C 1190.75 695.011719 1189.136719 702.195312 1187.347656 709.339844 C 1185.558594 716.484375 1183.59375 723.582031 1181.457031 730.628906 C 1179.320312 737.675781 1177.007812 744.667969 1174.527344 751.601562 C 1172.046875 758.535156 1169.398438 765.402344 1166.578125 772.207031 C 1163.761719 779.011719 1160.777344 785.742188 1157.628906 792.398438 C 1154.480469 799.058594 1151.167969 805.632812 1147.699219 812.128906 C 1144.226562 818.625 1140.597656 825.027344 1136.8125 831.347656 C 1133.023438 837.664062 1129.085938 843.882812 1124.996094 850.007812 C 1120.902344 856.128906 1116.664062 862.148438 1112.277344 868.0625 C 1107.890625 873.980469 1103.359375 879.785156 1098.6875 885.476562 C 1094.015625 891.167969 1089.207031 896.746094 1084.261719 902.203125 C 1079.316406 907.65625 1074.238281 912.992188 1069.03125 918.199219 C 1063.824219 923.40625 1058.492188 928.480469 1053.035156 933.429688 C 1047.578125 938.375 1042.003906 943.183594 1036.308594 947.855469 C 1030.617188 952.527344 1024.8125 957.054688 1018.898438 961.441406 C 1012.984375 965.832031 1006.964844 970.070312 1000.839844 974.160156 C 994.714844 978.253906 988.496094 982.191406 982.179688 985.976562 C 975.863281 989.765625 969.457031 993.394531 962.960938 996.863281 C 956.464844 1000.335938 949.890625 1003.644531 943.234375 1006.792969 C 936.574219 1009.945312 929.84375 1012.925781 923.039062 1015.746094 C 916.238281 1018.5625 909.367188 1021.214844 902.433594 1023.695312 C 895.5 1026.175781 888.507812 1028.484375 881.460938 1030.621094 C 874.414062 1032.761719 867.316406 1034.722656 860.175781 1036.515625 C 853.03125 1038.304688 845.847656 1039.917969 838.625 1041.351562 C 831.402344 1042.789062 824.148438 1044.046875 816.863281 1045.128906 C 809.578125 1046.210938 802.269531 1047.109375 794.941406 1047.832031 C 787.613281 1048.554688 780.269531 1049.097656 772.914062 1049.457031 C 765.558594 1049.820312 758.199219 1050 750.832031 1050 L 300.832031 1050 L 600.832031 750 L 750.832031 750 C 753.289062 750 755.742188 749.941406 758.195312 749.820312 C 760.644531 749.699219 763.09375 749.519531 765.535156 749.277344 C 767.980469 749.035156 770.414062 748.738281 772.84375 748.375 C 775.269531 748.015625 777.6875 747.597656 780.097656 747.117188 C 782.503906 746.640625 784.898438 746.101562 787.28125 745.503906 C 789.660156 744.90625 792.027344 744.253906 794.375 743.539062 C 796.726562 742.828125 799.054688 742.058594 801.367188 741.230469 C 803.679688 740.40625 805.96875 739.519531 808.234375 738.582031 C 810.503906 737.640625 812.746094 736.648438 814.964844 735.597656 C 817.1875 734.546875 819.378906 733.445312 821.542969 732.289062 C 823.707031 731.128906 825.84375 729.921875 827.949219 728.660156 C 830.054688 727.398438 832.128906 726.085938 834.167969 724.71875 C 836.210938 723.355469 838.214844 721.945312 840.1875 720.480469 C 842.160156 719.019531 844.09375 717.507812 845.992188 715.953125 C 847.890625 714.394531 849.75 712.792969 851.566406 711.140625 C 853.386719 709.492188 855.164062 707.800781 856.898438 706.066406 C 858.636719 704.328125 860.328125 702.550781 861.976562 700.734375 C 863.625 698.914062 865.226562 697.054688 866.785156 695.160156 C 868.34375 693.261719 869.851562 691.328125 871.3125 689.355469 C 872.777344 687.382812 874.191406 685.375 875.554688 683.335938 C 876.917969 681.292969 878.230469 679.222656 879.492188 677.113281 C 880.753906 675.007812 881.964844 672.875 883.121094 670.710938 C 884.277344 668.542969 885.382812 666.351562 886.429688 664.132812 C 887.480469 661.914062 888.476562 659.671875 889.414062 657.402344 C 890.355469 655.132812 891.238281 652.84375 892.066406 650.535156 C 892.890625 648.222656 893.660156 645.890625 894.375 643.542969 C 895.085938 641.195312 895.742188 638.828125 896.335938 636.445312 C 896.933594 634.066406 897.472656 631.671875 897.949219 629.261719 C 898.429688 626.855469 898.847656 624.4375 899.210938 622.007812 C 899.570312 619.582031 899.871094 617.144531 900.109375 614.703125 C 900.351562 612.257812 900.53125 609.8125 900.652344 607.359375 C 900.773438 604.90625 900.832031 602.453125 900.832031 600 C 900.832031 597.546875 900.773438 595.089844 900.652344 592.640625 C 900.53125 590.1875 900.351562 587.742188 900.109375 585.296875 C 899.871094 582.855469 899.570312 580.417969 899.210938 577.992188 C 898.847656 575.5625 898.429688 573.144531 897.949219 570.734375 C 897.472656 568.328125 896.933594 565.933594 896.335938 563.554688 C 895.742188 561.171875 895.085938 558.804688 894.375 556.457031 C 893.660156 554.109375 892.890625 551.777344 892.066406 549.464844 C 891.238281 547.15625 890.355469 544.867188 889.414062 542.597656 C 888.476562 540.328125 887.480469 538.085938 886.429688 535.867188 C 885.382812 533.648438 884.277344 531.457031 883.121094 529.289062 C 881.964844 527.125 880.753906 524.988281 879.492188 522.882812 C 878.230469 520.777344 876.917969 518.707031 875.554688 516.664062 C 874.191406 514.625 872.777344 512.617188 871.3125 510.644531 C 869.851562 508.671875 868.34375 506.738281 866.785156 504.839844 C 865.226562 502.941406 863.625 501.085938 861.976562 499.265625 C 860.328125 497.445312 858.636719 495.667969 856.898438 493.933594 C 855.164062 492.199219 853.386719 490.503906 851.566406 488.855469 C 849.75 487.207031 847.890625 485.605469 845.992188 484.046875 C 844.09375 482.492188 842.160156 480.980469 840.1875 479.519531 C 838.214844 478.054688 836.210938 476.644531 834.167969 475.28125 C 832.128906 473.914062 830.054688 472.601562 827.949219 471.339844 C 825.84375 470.078125 823.707031 468.867188 821.542969 467.710938 C 819.378906 466.554688 817.1875 465.449219 814.964844 464.402344 C 812.746094 463.351562 810.503906 462.355469 808.234375 461.417969 C 805.96875 460.480469 803.679688 459.59375 801.367188 458.769531 C 799.054688 457.941406 796.726562 457.171875 794.375 456.457031 C 792.027344 455.746094 789.660156 455.089844 787.28125 454.496094 C 784.898438 453.898438 782.503906 453.359375 780.097656 452.882812 C 777.6875 452.402344 775.269531 451.984375 772.84375 451.625 C 770.414062 451.261719 767.980469 450.960938 765.535156 450.722656 C 763.09375 450.480469 760.644531 450.300781 758.195312 450.179688 C 755.742188 450.058594 753.289062 450 750.832031 450 L 300.832031 450 L 600.832031 150 Z M 750.832031 150 " fill-opacity="1" fill-rule="evenodd"/><path fill="#00f2ff" d="M 600.832031 1050 L 600.832031 1350 L 300.832031 1350 Z M 600.832031 1050 " fill-opacity="1" fill-rule="evenodd"/></svg>